#!OML:ASF F:\VICON\USERDATA\INSTALL\rory7\rory7.ASF
:FULLY-SPECIFIED
:DEGREES
242
root -0.0267993 18.845 4.00476 -3.74235 -3.43199 0.220388
lowerback 6.44488 2.22322 -0.92555
upperback -0.525632 2.78271 -2.62839
thorax -4.07074 1.37269 -2.47488
lowerneck -10.2561 -4.99973 -7.1222
upperneck 0.426041 -6.17636 9.72014
head 2.32287 -2.81198 3.76723
rclavicle 3.23025e-016 -3.97569e-015
rhumerus 40.7234 2.97729 -45.8006
rradius 121.139
rwrist 1.82209
rhand -43.6593 13.4543
rfingers 7.12502
rthumb -16.4932 -15.8647
lclavicle 3.23025e-016 -3.97569e-015
lhumerus -35.038 13.3005 69.6978
lradius 20.0881
lwrist -10.7263
lhand -23.0025 21.8053
lfingers 7.12502
lthumb 3.44065 51.7573
rfemur 0 0 0
rtibia 0
rfoot 0 0
rtoes 0
lfemur 6.26425 -10.505 -18.9446
ltibia 10.6087
lfoot -12.4844 20.4683
ltoes -5.04492
243
root -0.0280308 18.8442 4.00993 -3.72906 -3.38038 0.278681
lowerback 6.44768 2.2154 -0.927889
upperback -0.582877 2.76879 -2.67283
thorax -4.13025 1.36483 -2.52044
lowerneck -10.2295 -5.04705 -7.17476
upperneck 0.0386113 -6.21146 9.79175
head 2.21059 -2.83252 3.79982
rclavicle 1.85864e-014 -2.46493e-014
rhumerus 41.0632 2.45229 -45.7449
rradius 121.071
rwrist 1.85629
rhand -43.7084 13.6444
rfingers 7.12502
rthumb -16.5404 -15.6706
lclavicle 1.85864e-014 -2.46493e-014
lhumerus -35.2079 13.4996 69.4625
lradius 20.0653
lwrist -11.0276
lhand -22.9424 21.7045
lfingers 7.12502
lthumb 3.49871 51.6555
rfemur 0 0 0
rtibia 0
rfoot 0 0
rtoes 0
lfemur 6.25196 -10.6072 -19.016
ltibia 10.6312
lfoot -12.556 20.4831
ltoes -4.71808
244
root -0.0288001 18.8434 4.01283 -3.7135 -3.32125 0.296091
lowerback 6.49066 2.19287 -0.891109
upperback -0.633493 2.73796 -2.70472
thorax -4.2049 1.34771 -2.57495
lowerneck -10.1847 -5.07902 -7.20009
upperneck -0.395248 -6.22623 9.84628
head 2.07857 -2.84445 3.82516
rclavicle 6.93262e-015 1.59028e-015
rhumerus 41.399 1.97372 -45.7014
rradius 120.977
rwrist 2.04064
rhand -43.932 14.0152
rfingers 7.12502
rthumb -16.7557 -15.2818
lclavicle 6.93262e-015 1.59028e-015
lhumerus -35.256 13.4878 69.3594
lradius 19.9708
lwrist -11.0204
lhand -22.8338 21.582
lfingers 7.12502
lthumb 3.60356 51.5313
rfemur 0 0 0
rtibia 0
rfoot 0 0
rtoes 0
lfemur 6.24832 -10.6677 -19.0332
ltibia 10.6195
lfoot -12.6515 20.4567
ltoes -4.29446
245
root -0.0299523 18.843 4.01264 -3.72197 -3.30945 0.252399
lowerback 6.61523 2.17985 -0.809793
upperback -0.709213 2.72202 -2.70552
thorax -4.35063 1.33656 -2.6284
lowerneck -10.1246 -5.11386 -7.17568
upperneck -0.802665 -6.24975 9.80407
head 1.94738 -2.86333 3.81273
rclavicle -1.98039e-014 2.94201e-014
rhumerus 41.718 1.56647 -45.6442
rradius 120.905
rwrist 2.33914
rhand -43.9214 13.4719
rfingers 7.12502
rthumb -16.7455 -15.8259
lclavicle -1.98039e-014 2.94201e-014
lhumerus -35.4685 13.8634 69.0559
lradius 20.0044
lwrist -11.3952
lhand -22.6313 21.8874
lfingers 7.12502
lthumb 3.79911 51.8333
rfemur 0 0 0
rtibia 0
rfoot 0 0
rtoes 0
lfemur 6.26474 -10.6311 -18.9732
ltibia 10.5962
lfoot -12.6481 20.4027
ltoes -4.21881
246
root -0.0307395 18.8435 4.01321 -3.68514 -3.29295 0.252534
lowerback 6.66596 2.17709 -0.764216
upperback -0.793692 2.71765 -2.73062
thorax -4.46407 1.33183 -2.685
lowerneck -10.0956 -5.14452 -7.08829
upperneck -1.22764 -6.2702 9.70007
head 1.8113 -2.88147 3.77144
rclavicle -1.97542e-014 -7.15625e-015
rhumerus 42.0216 1.14135 -45.6061
rradius 120.859
rwrist 2.66351
rhand -43.8564 12.8642
rfingers 7.12502
rthumb -16.6829 -16.4389
lclavicle -1.97542e-014 -7.15625e-015
lhumerus -35.7143 14.1619 68.7696
lradius 20.1029
lwrist -11.7744
lhand -22.4958 22.2166
lfingers 7.12502
lthumb 3.92997 52.1601
rfemur 0 0 0
rtibia 0
rfoot 0 0
rtoes 0
lfemur 6.22152 -10.5739 -18.9551
ltibia 10.5933
lfoot -12.5671 20.3476
ltoes -4.46432
247
root -0.0323916 18.8451 4.0157 -3.60809 -3.25648 0.283946
lowerback 6.65654 2.16624 -0.755638
upperback -0.878582 2.70028 -2.76979
thorax -4.54565 1.3216 -2.73131
lowerneck -9.99265 -5.14369 -7.01524
upperneck -1.71755 -6.24906 9.65081
head 1.64357 -2.8802 3.7542
rclavicle 1.27719e-014 1.27222e-014
rhumerus 42.3437 0.682701 -45.6003
rradius 120.724
rwrist 3.00436
rhand -44.0864 13.347
rfingers 7.12502
rthumb -16.9044 -15.9373
lclavicle 1.27719e-014 1.27222e-014
lhumerus -35.8636 14.2133 68.6075
lradius 20.1244
lwrist -11.9672
lhand -22.3893 22.2428
lfingers 7.12502
lthumb 4.03289 52.1844
rfemur 0 0 0
rtibia 0
rfoot 0 0
rtoes 0
lfemur 6.12555 -10.55 -18.9719
ltibia 10.6173
lfoot -12.4766 20.3431
ltoes -4.68386
